<svg width="41" height="41" viewBox="0 0 41 41" fill="none" xmlns="http://www.w3.org/2000/svg">
    <path
        d="M8.7375 32.6688V27.1937C8.7375 25.375 10.1625 23.7437 12.1875 23.7437C14.0062 23.7437 15.6375 25.1687 15.6375 27.1937V32.4625C15.6375 36.1187 12.6 39.1563 8.94375 39.1563C5.2875 39.1563 2.25 36.1 2.25 32.4625V20.9125C2.04375 10.375 10.3687 1.84375 20.9062 1.84375C31.4437 1.84375 39.75 10.375 39.75 20.7062V32.2563C39.75 35.9125 36.7125 38.95 33.0562 38.95C29.4 38.95 26.3625 35.9125 26.3625 32.2563V26.9875C26.3625 25.1687 27.7875 23.5375 29.8125 23.5375C31.6312 23.5375 33.2625 24.9625 33.2625 26.9875V32.6688"
        stroke="#EDA415" stroke-width="2.5" stroke-linecap="round" stroke-linejoin="round" />
</svg>